<?xml version="1.0" encoding="UTF-8"?>
<svg id="Calque_1" data-name="Calque 1" xmlns="http://www.w3.org/2000/svg" viewBox="0 0 409.53 145.97">
  <defs>
    <style>
      .cls-1 {
        fill: #00cfff;
      }

      .cls-1, .cls-2 {
        stroke-width: 0px;
      }

      .cls-2 {
        fill: #000;
      }
    </style>
  </defs>
  <g>
    <path class="cls-2" d="M84.42,87.73c-1.31-.82-2.29-1.92-2.95-3.3-.66-1.38-.99-2.9-.99-4.56s.33-3.18.99-4.56c.66-1.38,1.65-2.48,2.95-3.3,1.31-.82,2.89-1.24,4.75-1.24,1.5,0,2.82.27,3.97.81,1.15.54,2.08,1.28,2.77,2.21s1.15,2.01,1.35,3.22h-1.83c-.24-1.39-.92-2.51-2.03-3.36-1.11-.86-2.52-1.28-4.24-1.28-1.5,0-2.76.33-3.78,1-1.02.67-1.78,1.57-2.28,2.72-.5,1.14-.75,2.41-.75,3.79s.25,2.65.75,3.79c.5,1.14,1.26,2.05,2.28,2.71,1.02.67,2.28,1,3.78,1,1.94,0,3.46-.56,4.55-1.68,1.09-1.12,1.76-2.6,2-4.44h-7.33v-1.57h9.13v8.98h-1.6v-3.6c-.6,1.22-1.46,2.18-2.57,2.86-1.11.68-2.51,1.03-4.19,1.03-1.86,0-3.44-.41-4.75-1.23Z"/>
    <path class="cls-2" d="M102.79,88.1c-.93-.58-1.64-1.37-2.14-2.38-.5-1.01-.75-2.14-.75-3.4s.25-2.39.75-3.4c.5-1.01,1.21-1.81,2.14-2.38.93-.58,2.01-.87,3.25-.87s2.32.29,3.25.87c.93.58,1.64,1.37,2.14,2.38.5,1.01.75,2.14.75,3.4v.56h-10.45c.09,1.37.5,2.48,1.25,3.33.75.85,1.77,1.27,3.06,1.27,1,0,1.86-.25,2.58-.75.72-.5,1.24-1.18,1.55-2.04h1.75c-.4,1.31-1.11,2.34-2.14,3.12-1.03.78-2.28,1.16-3.74,1.16-1.24,0-2.32-.29-3.25-.87ZM110.35,81.38c-.15-1.27-.6-2.29-1.34-3.07-.74-.77-1.73-1.16-2.97-1.16s-2.2.39-2.94,1.16c-.74.78-1.19,1.8-1.34,3.07h8.59Z"/>
    <path class="cls-2" d="M115.39,87.82c-1.01-.77-1.54-1.87-1.61-3.3h1.75c.09,1.03.46,1.79,1.11,2.29.65.5,1.58.75,2.79.75,1.08,0,1.94-.19,2.58-.57.64-.38.95-.93.95-1.65,0-.46-.09-.82-.27-1.1-.18-.28-.53-.51-1.06-.71-.52-.2-1.31-.37-2.36-.54-1.31-.2-2.33-.46-3.07-.8-.74-.33-1.26-.74-1.56-1.22-.3-.48-.45-1.07-.45-1.77,0-1.08.46-1.93,1.37-2.57.91-.64,2.08-.95,3.51-.95,1.69,0,2.99.37,3.92,1.1.93.73,1.41,1.77,1.44,3.11h-1.73c-.03-.98-.36-1.69-.98-2.13-.62-.44-1.51-.66-2.66-.66-.91,0-1.66.18-2.26.55s-.89.88-.89,1.53c0,.46.11.83.32,1.11.21.29.59.52,1.14.71.54.19,1.33.36,2.36.53,1.29.2,2.3.45,3.02.77.72.32,1.23.71,1.52,1.19.29.47.44,1.06.44,1.76,0,1.19-.5,2.11-1.5,2.76-1,.65-2.26.98-3.79.98-1.69,0-3.03-.38-4.04-1.15Z"/>
    <path class="cls-2" d="M129.95,72.04v3.91h3.74v1.44h-3.74v8.19c0,.55.11.97.34,1.23.22.27.63.4,1.21.4h2.19v1.44h-2.48c-1.12,0-1.9-.24-2.33-.73s-.66-1.21-.66-2.18v-8.37h-2.5v-1.44h2.5v-3.91h1.73Z"/>
    <path class="cls-2" d="M135.84,71.06h1.73v2.42h-1.73v-2.42ZM135.84,75.95h1.7v12.72h-1.7v-12.72Z"/>
    <path class="cls-2" d="M142.94,88.1c-.95-.58-1.69-1.37-2.19-2.38-.51-1.01-.76-2.14-.76-3.4s.25-2.39.76-3.4c.51-1.01,1.24-1.81,2.19-2.38.95-.58,2.08-.87,3.37-.87s2.43.29,3.38.87c.95.58,1.67,1.37,2.18,2.37.51,1,.76,2.14.76,3.41s-.25,2.41-.76,3.41c-.51,1-1.23,1.79-2.18,2.37-.95.58-2.07.87-3.38.87s-2.41-.29-3.37-.87ZM142.96,86.04c.77.95,1.89,1.43,3.35,1.43s2.58-.48,3.37-1.43c.78-.95,1.17-2.2,1.17-3.73s-.39-2.78-1.17-3.73c-.78-.95-1.91-1.43-3.37-1.43s-2.58.48-3.35,1.43c-.77.95-1.16,2.2-1.16,3.73s.39,2.78,1.16,3.73Z"/>
    <path class="cls-2" d="M163.44,78.04c-.58-.6-1.43-.89-2.53-.89-.6,0-1.21.15-1.83.44-.62.29-1.14.77-1.57,1.42-.43.65-.64,1.5-.64,2.54v7.12h-1.73v-12.72h1.65v2.08c.46-.72,1.07-1.29,1.82-1.72.75-.43,1.62-.65,2.62-.65,1.56,0,2.75.45,3.56,1.33.81.89,1.21,2.02,1.21,3.39v8.29h-1.68v-8.12c0-1.08-.29-1.91-.88-2.51Z"/>
    <path class="cls-2" d="M12.95,97.35h1.78v17.61h-1.78v-17.61Z"/>
    <path class="cls-2" d="M26.26,104.34c-.58-.6-1.43-.89-2.53-.89-.6,0-1.21.15-1.83.44-.62.29-1.14.77-1.57,1.42-.43.65-.64,1.5-.64,2.54v7.12h-1.73v-12.72h1.65v2.08c.46-.72,1.07-1.29,1.82-1.72.75-.43,1.62-.65,2.62-.65,1.56,0,2.75.45,3.56,1.33.81.89,1.21,2.02,1.21,3.39v8.29h-1.68v-8.12c0-1.08-.29-1.91-.88-2.51Z"/>
    <path class="cls-2" d="M42.16,114.97v-2.27c-.48.82-1.12,1.45-1.92,1.9-.8.45-1.73.67-2.8.67-1.29,0-2.4-.29-3.32-.87-.92-.58-1.62-1.37-2.1-2.37-.48-1-.72-2.14-.72-3.41s.24-2.41.72-3.41c.48-1,1.18-1.79,2.1-2.37.92-.58,2.03-.87,3.32-.87,1.05,0,1.96.21,2.73.64.77.42,1.41,1.03,1.91,1.81v-7.04h1.73v17.61h-1.65ZM34.25,112.34c.78.95,1.9,1.43,3.37,1.43s2.58-.48,3.35-1.43c.77-.95,1.16-2.2,1.16-3.73s-.39-2.78-1.16-3.73c-.77-.95-1.89-1.43-3.35-1.43s-2.58.48-3.37,1.43c-.78.95-1.17,2.2-1.17,3.73s.39,2.78,1.17,3.73Z"/>
    <path class="cls-2" d="M49.17,114.39c-.93-.58-1.64-1.37-2.14-2.38-.5-1.01-.75-2.14-.75-3.4s.25-2.39.75-3.4c.5-1.01,1.21-1.81,2.14-2.38.93-.58,2.01-.87,3.25-.87s2.32.29,3.25.87c.93.58,1.64,1.37,2.14,2.38.5,1.01.75,2.14.75,3.4v.56h-10.45c.09,1.37.5,2.48,1.25,3.33.75.85,1.77,1.27,3.06,1.27,1,0,1.86-.25,2.58-.75s1.24-1.18,1.55-2.04h1.75c-.4,1.31-1.11,2.34-2.14,3.12-1.03.78-2.28,1.16-3.74,1.16-1.24,0-2.32-.29-3.25-.87ZM56.73,107.68c-.15-1.27-.6-2.29-1.34-3.07-.74-.77-1.73-1.16-2.97-1.16s-2.2.39-2.94,1.16c-.74.78-1.19,1.8-1.34,3.07h8.59ZM54.33,97.06h2.27l-3.41,3.57h-1.52l2.66-3.57Z"/>
    <path class="cls-2" d="M62.72,102.25v2.27c.48-.82,1.12-1.45,1.92-1.9.8-.45,1.73-.67,2.8-.67,1.29,0,2.4.29,3.32.87.92.58,1.62,1.37,2.1,2.37.48,1,.72,2.14.72,3.41s-.24,2.41-.72,3.41c-.48,1-1.18,1.79-2.1,2.37-.92.58-2.03.87-3.32.87-1.05,0-1.96-.21-2.73-.64-.77-.42-1.41-1.03-1.91-1.81v7.04h-1.73v-17.61h1.65ZM63.9,112.34c.77.95,1.89,1.43,3.35,1.43s2.58-.48,3.37-1.43c.78-.95,1.17-2.2,1.17-3.73s-.39-2.78-1.17-3.73c-.78-.95-1.91-1.43-3.37-1.43s-2.58.48-3.35,1.43-1.16,2.2-1.16,3.73.39,2.78,1.16,3.73Z"/>
    <path class="cls-2" d="M78.35,114.39c-.93-.58-1.64-1.37-2.14-2.38-.5-1.01-.75-2.14-.75-3.4s.25-2.39.75-3.4c.5-1.01,1.21-1.81,2.14-2.38.93-.58,2.01-.87,3.25-.87s2.32.29,3.25.87c.93.58,1.64,1.37,2.14,2.38.5,1.01.75,2.14.75,3.4v.56h-10.45c.09,1.37.5,2.48,1.25,3.33.75.85,1.77,1.27,3.06,1.27,1,0,1.86-.25,2.58-.75s1.24-1.18,1.55-2.04h1.75c-.4,1.31-1.11,2.34-2.14,3.12-1.03.78-2.28,1.16-3.74,1.16-1.24,0-2.32-.29-3.25-.87ZM85.91,107.68c-.15-1.27-.6-2.29-1.34-3.07-.74-.77-1.73-1.16-2.97-1.16s-2.2.39-2.94,1.16c-.74.78-1.19,1.8-1.34,3.07h8.59Z"/>
    <path class="cls-2" d="M98.55,104.34c-.58-.6-1.43-.89-2.53-.89-.6,0-1.21.15-1.83.44-.62.29-1.14.77-1.57,1.42-.43.65-.64,1.5-.64,2.54v7.12h-1.73v-12.72h1.65v2.08c.46-.72,1.07-1.29,1.82-1.72.75-.43,1.62-.65,2.62-.65,1.56,0,2.75.45,3.56,1.33.81.89,1.21,2.02,1.21,3.39v8.29h-1.68v-8.12c0-1.08-.29-1.91-.88-2.51Z"/>
    <path class="cls-2" d="M114.45,114.97v-2.27c-.48.82-1.12,1.45-1.92,1.9-.8.45-1.73.67-2.8.67-1.29,0-2.4-.29-3.32-.87-.92-.58-1.62-1.37-2.1-2.37-.48-1-.72-2.14-.72-3.41s.24-2.41.72-3.41c.48-1,1.18-1.79,2.1-2.37.92-.58,2.03-.87,3.32-.87,1.05,0,1.96.21,2.73.64.77.42,1.41,1.03,1.91,1.81v-7.04h1.73v17.61h-1.65ZM106.54,112.34c.78.95,1.9,1.43,3.37,1.43s2.58-.48,3.35-1.43c.77-.95,1.16-2.2,1.16-3.73s-.39-2.78-1.16-3.73c-.77-.95-1.89-1.43-3.35-1.43s-2.58.48-3.37,1.43c-.78.95-1.17,2.2-1.17,3.73s.39,2.78,1.17,3.73Z"/>
    <path class="cls-2" d="M127.68,112.98c-1.03,1.52-2.59,2.27-4.67,2.27-1.46,0-2.6-.33-3.42-.99-.82-.66-1.23-1.56-1.23-2.7,0-1.06.4-1.9,1.2-2.52.8-.62,2.01-1.08,3.63-1.39l4.41-.83v-1.05c0-.83-.28-1.43-.83-1.81-.55-.37-1.36-.56-2.43-.56s-1.96.22-2.67.65c-.71.43-1.08,1.14-1.1,2.12h-1.73c.03-1.42.57-2.47,1.61-3.17,1.04-.69,2.33-1.04,3.88-1.04,1.63,0,2.86.32,3.69.95.83.64,1.24,1.53,1.24,2.69v9.37h-1.6v-1.98ZM120.87,113.19c.5.42,1.24.62,2.22.62,1.26,0,2.32-.35,3.2-1.04s1.32-1.7,1.32-3.02v-1.57l-4.18.86c-1.15.24-1.99.54-2.52.88-.52.34-.79.88-.79,1.61,0,.68.25,1.24.75,1.65Z"/>
    <path class="cls-2" d="M140.27,104.34c-.58-.6-1.43-.89-2.53-.89-.6,0-1.21.15-1.83.44-.62.29-1.14.77-1.57,1.42-.43.65-.64,1.5-.64,2.54v7.12h-1.73v-12.72h1.65v2.08c.46-.72,1.07-1.29,1.82-1.72.75-.43,1.62-.65,2.62-.65,1.56,0,2.75.45,3.56,1.33.81.89,1.21,2.02,1.21,3.39v8.29h-1.68v-8.12c0-1.08-.29-1.91-.88-2.51Z"/>
    <path class="cls-2" d="M148.97,98.33v3.91h3.74v1.44h-3.74v8.19c0,.55.11.97.34,1.23.22.27.63.4,1.21.4h2.19v1.44h-2.48c-1.12,0-1.9-.24-2.33-.73s-.66-1.21-.66-2.18v-8.37h-2.5v-1.44h2.5v-3.91h1.73Z"/>
    <path class="cls-2" d="M157.17,114.39c-.93-.58-1.64-1.37-2.14-2.38-.5-1.01-.75-2.14-.75-3.4s.25-2.39.75-3.4c.5-1.01,1.21-1.81,2.14-2.38.93-.58,2.01-.87,3.25-.87s2.32.29,3.25.87c.93.58,1.64,1.37,2.14,2.38.5,1.01.75,2.14.75,3.4v.56h-10.45c.09,1.37.5,2.48,1.25,3.33.75.85,1.77,1.27,3.06,1.27,1,0,1.86-.25,2.58-.75s1.24-1.18,1.55-2.04h1.75c-.4,1.31-1.11,2.34-2.14,3.12-1.03.78-2.28,1.16-3.74,1.16-1.24,0-2.32-.29-3.25-.87ZM164.73,107.68c-.15-1.27-.6-2.29-1.34-3.07-.74-.77-1.73-1.16-2.97-1.16s-2.2.39-2.94,1.16c-.74.78-1.19,1.8-1.34,3.07h8.59Z"/>
    <path class="cls-2" d="M11.25,141.26v-2.27c-.48.82-1.12,1.45-1.92,1.9-.8.45-1.73.67-2.8.67-1.29,0-2.4-.29-3.32-.87-.92-.58-1.62-1.37-2.1-2.37-.48-1-.72-2.14-.72-3.41s.24-2.41.72-3.41c.48-1,1.18-1.79,2.1-2.37.92-.58,2.03-.87,3.32-.87,1.05,0,1.96.21,2.73.64.77.42,1.41,1.03,1.91,1.81v-7.04h1.73v17.61h-1.65ZM3.34,138.63c.78.95,1.9,1.43,3.37,1.43s2.58-.48,3.35-1.43c.77-.95,1.16-2.2,1.16-3.73s-.39-2.78-1.16-3.73c-.77-.95-1.89-1.43-3.35-1.43s-2.58.48-3.37,1.43c-.78.95-1.17,2.2-1.17,3.73s.39,2.78,1.17,3.73Z"/>
    <path class="cls-2" d="M18.27,140.69c-.93-.58-1.64-1.37-2.14-2.38-.5-1.01-.75-2.14-.75-3.4s.25-2.39.75-3.4c.5-1.01,1.21-1.81,2.14-2.38.93-.58,2.01-.87,3.25-.87s2.32.29,3.25.87c.93.58,1.64,1.37,2.14,2.38.5,1.01.75,2.14.75,3.4v.56h-10.45c.09,1.37.5,2.48,1.25,3.33.75.85,1.77,1.27,3.06,1.27,1,0,1.86-.25,2.58-.75s1.24-1.18,1.55-2.04h1.75c-.4,1.31-1.11,2.34-2.14,3.12-1.03.78-2.28,1.16-3.74,1.16-1.24,0-2.32-.29-3.25-.87ZM25.83,133.97c-.15-1.27-.6-2.29-1.34-3.07-.74-.77-1.73-1.16-2.97-1.16s-2.2.39-2.94,1.16c-.74.78-1.19,1.8-1.34,3.07h8.59Z"/>
    <path class="cls-2" d="M35.58,123.65h7.3c1.34,0,2.48.23,3.42.7.94.46,1.64,1.1,2.12,1.9.47.8.71,1.7.71,2.69s-.24,1.89-.71,2.69c-.47.8-1.18,1.43-2.12,1.9-.94.47-2.08.7-3.42.7h-5.52v7.04h-1.78v-17.61ZM42.88,132.67c1.43,0,2.52-.35,3.26-1.04.75-.69,1.12-1.59,1.12-2.7s-.37-2.01-1.12-2.7c-.75-.69-1.84-1.04-3.26-1.04h-5.52v7.48h5.52Z"/>
    <path class="cls-2" d="M60.22,139.28c-1.03,1.52-2.59,2.27-4.67,2.27-1.46,0-2.6-.33-3.42-.99-.82-.66-1.23-1.56-1.23-2.7,0-1.06.4-1.9,1.2-2.52.8-.62,2.01-1.08,3.63-1.39l4.41-.83v-1.05c0-.83-.28-1.43-.83-1.81-.55-.37-1.36-.56-2.43-.56s-1.96.22-2.67.65c-.71.43-1.08,1.14-1.1,2.12h-1.73c.03-1.42.57-2.47,1.61-3.17,1.04-.69,2.33-1.04,3.88-1.04,1.63,0,2.86.32,3.69.95.83.64,1.24,1.53,1.24,2.69v9.37h-1.6v-1.98ZM53.4,139.49c.5.42,1.24.62,2.22.62,1.26,0,2.32-.35,3.2-1.04s1.32-1.7,1.32-3.02v-1.57l-4.18.86c-1.15.24-1.99.54-2.52.88-.52.34-.79.88-.79,1.61,0,.68.25,1.24.75,1.65Z"/>
    <path class="cls-2" d="M67.57,124.63v3.91h3.74v1.44h-3.74v8.19c0,.55.11.97.34,1.23.22.27.63.4,1.21.4h2.19v1.44h-2.48c-1.12,0-1.9-.24-2.33-.73-.44-.49-.66-1.21-.66-2.18v-8.37h-2.5v-1.44h2.5v-3.91h1.73Z"/>
    <path class="cls-2" d="M73.48,128.54h1.65v2.4c.93-1.7,2.43-2.54,4.49-2.54h1.01v1.57h-1.08c-1.27,0-2.31.35-3.12,1.06-.81.71-1.21,1.83-1.21,3.36v6.87h-1.73v-12.72Z"/>
    <path class="cls-2" d="M82.74,123.65h1.73v2.42h-1.73v-2.42ZM82.74,128.54h1.7v12.72h-1.7v-12.72Z"/>
    <path class="cls-2" d="M103.83,130.64c-.56-.6-1.31-.91-2.26-.91-.58,0-1.17.14-1.74.43-.58.29-1.06.76-1.44,1.42-.39.66-.58,1.51-.58,2.56v7.12h-1.73v-8.12c0-1.06-.28-1.89-.84-2.5-.56-.6-1.31-.91-2.26-.91-.58,0-1.17.14-1.74.43-.58.29-1.06.76-1.44,1.42-.39.66-.58,1.51-.58,2.56v7.12h-1.73v-12.72h1.65v2.03c.88-1.55,2.26-2.32,4.15-2.32,1.01,0,1.87.24,2.58.73.71.49,1.22,1.14,1.55,1.96.41-.82.99-1.47,1.73-1.96.74-.49,1.65-.73,2.73-.73.95,0,1.76.21,2.44.64.68.42,1.2,1,1.55,1.71.35.72.53,1.51.53,2.37v8.29h-1.73v-8.12c0-1.06-.28-1.89-.84-2.5Z"/>
    <path class="cls-2" d="M111.83,140.69c-.95-.58-1.69-1.37-2.19-2.38-.51-1.01-.76-2.14-.76-3.4s.25-2.39.76-3.4c.51-1.01,1.24-1.81,2.19-2.38.95-.58,2.08-.87,3.37-.87s2.43.29,3.38.87c.95.58,1.67,1.37,2.18,2.37.51,1,.76,2.14.76,3.41s-.25,2.41-.76,3.41c-.51,1-1.23,1.79-2.18,2.37-.95.58-2.07.87-3.38.87s-2.41-.29-3.37-.87ZM111.84,138.63c.77.95,1.89,1.43,3.35,1.43s2.58-.48,3.37-1.43c.78-.95,1.17-2.2,1.17-3.73s-.39-2.78-1.17-3.73c-.78-.95-1.91-1.43-3.37-1.43s-2.58.48-3.35,1.43c-.77.95-1.16,2.2-1.16,3.73s.39,2.78,1.16,3.73Z"/>
    <path class="cls-2" d="M123.99,123.65h1.73v2.42h-1.73v-2.42ZM123.99,128.54h1.7v12.72h-1.7v-12.72Z"/>
    <path class="cls-2" d="M137.05,130.63c-.58-.6-1.43-.89-2.53-.89-.6,0-1.21.15-1.83.44-.62.29-1.14.77-1.57,1.42-.43.65-.64,1.5-.64,2.54v7.12h-1.73v-12.72h1.65v2.08c.46-.72,1.07-1.29,1.82-1.72.75-.43,1.62-.65,2.62-.65,1.56,0,2.75.45,3.56,1.33.81.89,1.21,2.02,1.21,3.39v8.29h-1.68v-8.12c0-1.08-.29-1.91-.88-2.51Z"/>
    <path class="cls-2" d="M144.97,140.69c-.93-.58-1.64-1.37-2.14-2.38-.5-1.01-.75-2.14-.75-3.4s.25-2.39.75-3.4c.5-1.01,1.21-1.81,2.14-2.38.93-.58,2.01-.87,3.25-.87s2.32.29,3.25.87c.93.58,1.64,1.37,2.14,2.38.5,1.01.75,2.14.75,3.4v.56h-10.45c.09,1.37.5,2.48,1.25,3.33.75.85,1.77,1.27,3.06,1.27,1,0,1.86-.25,2.58-.75s1.24-1.18,1.55-2.04h1.75c-.4,1.31-1.11,2.34-2.14,3.12-1.03.78-2.28,1.16-3.74,1.16-1.24,0-2.32-.29-3.25-.87ZM152.53,133.97c-.15-1.27-.6-2.29-1.34-3.07-.74-.77-1.73-1.16-2.97-1.16s-2.2.39-2.94,1.16c-.74.78-1.19,1.8-1.34,3.07h8.59Z"/>
    <path class="cls-2" d="M157.57,140.4c-1.01-.77-1.54-1.87-1.61-3.3h1.75c.09,1.03.46,1.79,1.11,2.29.65.5,1.58.75,2.79.75,1.08,0,1.94-.19,2.58-.57.64-.38.95-.93.95-1.65,0-.46-.09-.82-.27-1.1-.18-.28-.53-.51-1.06-.71-.52-.2-1.31-.37-2.36-.54-1.31-.2-2.33-.46-3.07-.8-.74-.33-1.26-.74-1.56-1.22-.3-.48-.45-1.07-.45-1.77,0-1.08.46-1.93,1.37-2.57.91-.64,2.08-.95,3.51-.95,1.69,0,2.99.37,3.92,1.1.93.73,1.41,1.77,1.44,3.11h-1.73c-.03-.98-.36-1.69-.98-2.13-.62-.44-1.51-.66-2.66-.66-.91,0-1.66.18-2.26.55s-.89.88-.89,1.53c0,.46.11.83.32,1.11.21.29.59.52,1.14.71.54.19,1.33.36,2.36.53,1.29.2,2.3.45,3.02.77.72.32,1.23.71,1.52,1.19.29.47.44,1.06.44,1.76,0,1.19-.5,2.11-1.5,2.76-1,.65-2.26.98-3.79.98-1.69,0-3.03-.38-4.04-1.15Z"/>
  </g>
  <path class="cls-2" d="M245.41,50.55h-20.71c-1.64-8.89-6.17-16.44-13.11-21.83-7.31-5.69-16.99-8.69-27.98-8.69-7.49,0-14.25,1.39-20.1,4.14-5.46,2.57-10.15,6.32-13.94,11.17-5.51,7.05-9.03,16.19-10.38,26.83h-21.1c1.68-15.53,7.21-29.42,15.99-39.85C145.89,8.29,163.01.87,183.61.87c16.65,0,31.23,4.86,42.16,14.05,10.34,8.69,17.11,20.88,19.57,35.23l.07.4Z"/>
  <path class="cls-1" d="M245.5,70.83v70.84h-18v-17.97c-8.85,11.62-22.1,17.65-39.42,17.96-.47,0-.93.01-1.41.01s-.95,0-1.42-.01c-3.26-.06-6.58-.35-9.88-.87l-.61-.09v-19.54l.89.21c3.48.85,7.19,1.27,11.03,1.27,11.13,0,20.15-3.35,26.8-9.95,5.61-5.57,9.46-13.33,11.47-23.07h-50.18v-18.78h70.74Z"/>
  <rect class="cls-2" x="265.77" y="3.12" width="20.28" height="138.48"/>
  <path class="cls-2" d="M398.55,15.92c-8.48-8.37-21.09-12.8-36.46-12.8h-55.77v138.48h20.28v-52h35.5c15.37,0,27.98-4.43,36.46-12.8,7.74-7.65,11.84-18.18,11.84-30.44s-4.09-22.79-11.84-30.44ZM364.05,70.83h-35.5V21.9h35.5c9.27,0,16.35,2.36,21.06,7.02,4.19,4.14,6.4,10.18,6.4,17.44s-2.21,13.29-6.4,17.44c-4.71,4.66-11.79,7.02-21.06,7.02Z"/>
</svg>